<?xml version="1.0" standalone="no"?>
<!DOCTYPE svg PUBLIC "-//W3C//DTD SVG 20010904//EN"
 "http://www.w3.org/TR/2001/REC-SVG-20010904/DTD/svg10.dtd">
<svg version="1.0" xmlns="http://www.w3.org/2000/svg"
 width="1280.000000pt" height="1280.000000pt" viewBox="0 0 1280.000000 1280.000000"
 preserveAspectRatio="xMidYMid meet">
<metadata>
Created by potrace 1.15, written by Peter Selinger 2001-2017
</metadata>
<g transform="translate(0.000000,1280.000000) scale(0.100000,-0.100000)"
fill="#ff0000" stroke="none">
<path d="M3500 12619 c-1078 -118 -1931 -737 -2353 -1709 -395 -910 -428
-2103 -92 -3396 116 -448 272 -889 481 -1364 97 -221 358 -740 454 -905 797
-1359 2421 -2905 4553 -4337 115 -77 215 -137 222 -134 23 8 386 253 635 428
1896 1327 3346 2741 4092 3988 110 183 178 313 325 615 484 994 751 1894 850
2860 27 266 24 858 -5 1102 -61 500 -164 875 -346 1258 -369 774 -1032 1310
-1881 1521 -257 63 -385 78 -695 78 -287 1 -357 -5 -592 -50 -568 -109 -1124
-405 -1575 -837 -205 -197 -423 -461 -579 -702 -68 -105 -224 -375 -224 -387
0 -26 -23 5 -81 110 -80 146 -293 466 -394 592 -349 436 -734 752 -1180 970
-301 147 -567 230 -900 282 -149 23 -570 33 -715 17z"/>
</g>
</svg>
